<svg xmlns="http://www.w3.org/2000/svg" xmlns:xlink="http://www.w3.org/1999/xlink" width="235.65mm" height="49.02mm" viewBox="0 0 667.97 138.96"><defs><style>.a{fill:url(#a);}.b{fill:#db0000;}.c{fill:#ffc301;}.d{fill:#75c718;}.e{fill:#a75ab0;}.f{fill:#333f4f;}</style><linearGradient id="a" x1="81.2" y1="66.89" x2="66.21" y2="151.95" gradientUnits="userSpaceOnUse"><stop offset="0.11" stop-color="#e2eaf0"/><stop offset="0.44" stop-color="#b9d9ed"/><stop offset="0.92" stop-color="#77bee8"/></linearGradient></defs><path class="a" d="M95.86,104.87c-4.72-11.91-26.72-17-35.8,2.69,0-.1,2-16.07,19.67-17.18C77.89,73.5,63.1,61.25,46.27,61.27c-34.81,0-40.15,34.29-27,45.83-11.17,5.57-8.76,30.7,13.49,25.32,1.08,9.74,17.92,24.15,36.6,13.84,13,4.53,31.09,6.44,45.17,1.64,10.78-3.68,19.9-13.24,21.26-23.69,2.86-21.88-23.17-35.72-40-19.34Z" transform="translate(-12.7 -11.74)"/><path class="b" d="M37.4,62.1A58.55,58.55,0,0,1,126,33.67a5.7,5.7,0,1,0,6.53-9.34A69.91,69.91,0,0,0,24.06,67.62l0,.26A32.9,32.9,0,0,1,37.4,62.1Z" transform="translate(-12.7 -11.74)"/><path class="c" d="M50,61.47A47,47,0,0,1,119.49,43,5.71,5.71,0,0,0,126,33.67,58.55,58.55,0,0,0,37.4,62.1a46.26,46.26,0,0,1,8.87-.83,35.41,35.41,0,0,1,3.73.2Z" transform="translate(-12.7 -11.74)"/><path class="d" d="M61.17,64.64a36.05,36.05,0,0,1,2.16-3.49A35.63,35.63,0,0,1,113,52.37,5.7,5.7,0,0,0,119.49,43,47.05,47.05,0,0,0,54,54.61a48.2,48.2,0,0,0-4,6.86,34.25,34.25,0,0,1,11.18,3.17Z" transform="translate(-12.7 -11.74)"/><path class="e" d="M70.58,71.31a24.2,24.2,0,0,1,35.84-9.6A5.7,5.7,0,0,0,113,52.37a35.67,35.67,0,0,0-49.63,8.78,33.43,33.43,0,0,0-2.15,3.49,34,34,0,0,1,9.4,6.67Z" transform="translate(-12.7 -11.74)"/><path class="f" d="M192.64,82.19C192.64,65,179.71,53,163.43,53s-29.37,12-29.37,29.21,13.18,29.29,29.37,29.29,29.21-12.12,29.21-29.29Zm-44.34,0c0-10.17,5.86-16.6,15.13-16.6,9.12,0,15,6.43,15,16.6,0,10-5.93,16.6-15,16.6-9.27,0-15.13-6.59-15.13-16.6Zm52.07,28.72h13.92V76.57l12.85,34.34h11.23l12.77-34.25v34.25h13.92V53.79H248.7L232.84,93.34l-16-39.55H200.37v57.12ZM289,79.34V65h7.56c5.54,0,7.9,2.77,7.9,7.16s-2.36,7.16-7.9,7.16Zm29.61-7.16c0-10.5-7-18.39-21-18.39H275.06v57.12H289V90.41h8.62c14.57,0,21-8.79,21-18.23Zm42.23-18.39h-35v57.12h35V99.76H339.75V87.23h18.63V76.49H339.75V64.94h21.07V53.79Zm5.94,11.15H381.9v46h13.91v-46h15.13V53.79H366.76V64.94Zm51.18,46h13.91V53.79H417.94v57.12Zm20.91-46H454v46H467.9v-46H483V53.79H438.85V64.94Zm51.18,46h13.91V53.79H490v57.12Zm80.23-28.72C570.26,65,557.32,53,541.05,53s-29.38,12-29.38,29.21,13.18,29.29,29.38,29.29,29.21-12.12,29.21-29.29Zm-44.35,0c0-10.17,5.86-16.6,15.14-16.6,9.11,0,15.05,6.43,15.05,16.6,0,10-5.94,16.6-15.05,16.6-9.28,0-15.14-6.59-15.14-16.6Zm89.26-28.4v35.4L591.9,53.79H578v57.12H591.9V75.68l23.27,35.23h13.91V53.79Zm65.5,40.11c0-19.12-28.24-14.64-28.24-24.57,0-3.58,2.53-5.29,5.86-5.2,3.75.08,6.35,2.27,6.59,5.94h15.06C679.37,59.16,671,53,658.54,53c-12,0-20.83,6-20.83,16.84C637.55,90.08,666.1,84.39,666.1,95c0,3.34-2.6,5.37-6.67,5.37-3.9,0-6.67-2.11-7.08-6.51h-14.8c.4,11.56,10,17.66,22.29,17.66,13.34,0,20.83-8,20.83-17.58Z" transform="translate(-12.7 -11.74)"/><path class="e" d="M517.78,142.75a3.13,3.13,0,1,0-3.1,3.14,3.1,3.1,0,0,0,3.1-3.14Zm3.15-9.05c0,7.45,4.82,12.28,11.62,12.28,5.82,0,9.61-3.23,10.94-7.88h-5.3c-.9,2.45-2.71,3.74-5.64,3.74-4,0-6.59-2.93-6.59-8.14s2.63-8.09,6.59-8.09a5.53,5.53,0,0,1,5.64,3.74h5.3c-1.33-5-5.12-7.88-10.94-7.88-6.8,0-11.62,4.83-11.62,12.23Zm49.57,0c0-7.45-5.34-12.23-12.1-12.23s-12.1,4.78-12.1,12.23S551.42,146,558.18,146s12.32-4.83,12.32-12.28Zm-19.21,0c0-5.38,3.32-8,7-8s7.15,2.58,7.15,8-3.62,8-7.28,8-6.89-2.62-6.89-8Zm57.2,11.89h4.86v-14c0-6.63-4.22-10.12-9.77-10.12a9.28,9.28,0,0,0-8.27,4.7c-1.64-3.1-4.78-4.7-8.53-4.7a9.08,9.08,0,0,0-7,3.1v-2.71h-4.91v23.73h4.91V132.33c0-4.35,2.37-6.59,6-6.59s5.94,2.24,5.94,6.59v13.26h4.87V132.33c0-4.35,2.37-6.59,6-6.59s6,2.24,6,6.59v13.26Zm15.68-2.84a3.13,3.13,0,1,0-3.1,3.14,3.1,3.1,0,0,0,3.1-3.14Zm3.15-9.13c0,7.32,4.95,12.36,11.11,12.36a10.23,10.23,0,0,0,8.31-3.92v3.53h5V121.86h-5v3.45a10.11,10.11,0,0,0-8.23-3.84c-6.24,0-11.19,4.83-11.19,12.15Zm19.42.08c0,5.13-3.49,8-7.19,8s-7.2-3-7.2-8.09,3.54-7.88,7.2-7.88,7.19,2.88,7.19,8Zm32.39-11.84h-4.91v13.22c0,4.35-2.37,6.59-6,6.59s-5.94-2.24-5.94-6.59V121.86h-4.87v14c0,6.64,4.22,10.12,9.78,10.12a8.84,8.84,0,0,0,7-3.18v2.84h4.91V121.86Z" transform="translate(-12.7 -11.74)"/></svg>